<svg width="52" height="51" viewBox="0 0 52 51" fill="none" xmlns="http://www.w3.org/2000/svg">
<path d="M26.2697 0.926514C40.3789 0.926514 51.8256 11.9992 51.8256 25.6613C51.8256 39.3234 40.3789 50.3961 26.2697 50.3961" fill="#F6F6F6"/>
<path d="M26.2696 50.3961C12.1604 50.3961 0.713623 39.3234 0.713623 25.6613C0.713623 11.9992 12.1604 0.926514 26.2696 0.926514" fill="#F6F6F6"/>
<path d="M28.4073 41.6809C28.4268 40.8886 28.4268 40.1156 28.4851 39.3234C28.6017 37.8934 28.524 36.4441 28.5823 35.0141C28.6211 33.6228 28.7377 32.2121 28.6989 30.8208C28.6989 30.6082 28.7766 30.4343 28.9515 30.357C29.1653 30.2797 29.3985 30.2411 29.6317 30.415C31.167 31.6131 32.7217 32.7918 34.2765 33.9706C34.3737 34.0479 34.4708 34.1252 34.5874 34.1832C34.7429 34.2798 34.8595 34.5503 35.0344 34.4537C35.1705 34.3764 35.0927 34.1059 35.0927 33.9319C35.0927 26.7821 35.0927 19.6515 35.0927 12.5016C35.0927 12.4436 35.0927 12.3856 35.0927 12.3083C36.5697 12.3083 38.0661 12.3083 39.5431 12.3083C39.5626 12.4436 39.582 12.5789 39.582 12.7142C39.582 20.8496 39.582 28.985 39.6015 37.1011C39.6015 38.0093 38.8824 38.763 37.969 38.7243C37.1527 38.6857 36.3365 38.7243 35.5203 38.7243C35.2288 38.7243 35.1705 38.763 35.3259 39.0721C35.7535 39.8837 36.1422 40.7147 36.5308 41.5649C36.6863 41.8934 36.5114 42.164 36.2199 42.2993" fill="#FECD4D"/>
<path d="M33.0716 43.1882C32.6441 42.3766 32.236 41.5456 31.8667 40.6954C31.7501 40.4055 31.6529 40.3282 31.3808 40.5601C30.7395 41.1012 30.0593 41.6229 29.3986 42.164" fill="#FECD4D"/>
<path d="M23.2768 34.2991C23.7626 34.4344 24.1319 34.6856 24.2485 35.2073C24.2485 36.0189 24.2485 36.8499 24.2485 37.6615C24.1513 38.1446 23.8404 38.4538 23.3545 38.5697C20.2256 38.5697 17.0967 38.5697 13.9483 38.5697C13.3847 38.4344 13.0349 37.9707 12.9961 37.333C12.9766 36.9658 12.9961 36.5793 12.9961 36.2122C12.9961 27.2845 12.9961 18.3761 12.9961 9.44839C12.9961 8.59814 13.3459 8.03774 14.0844 7.9218C14.8423 7.80585 15.6197 7.80585 16.3776 7.9218C17.1161 8.03774 17.4659 8.55949 17.4659 9.3711C17.4659 17.5258 17.4659 25.6613 17.4659 33.816C17.4659 33.9899 17.3688 34.2025 17.6214 34.2991C17.7186 34.4344 17.8546 34.3764 17.9712 34.3764C19.6426 34.3764 21.2945 34.3764 22.9658 34.3764C23.063 34.3764 23.1796 34.3957 23.2768 34.2991Z" fill="#0E9AD0"/>
<path d="M20.9641 12.1538C20.4977 12.0571 20.2062 11.748 20.1284 11.3422C19.9535 10.4919 19.9341 9.62232 20.1284 8.79139C20.2645 8.21167 20.7503 7.90248 21.3528 7.86383C21.45 7.86383 21.5277 7.86383 21.6249 7.86383C27.047 7.86383 32.4886 7.86383 37.9107 7.86383C38.727 7.86383 39.1934 8.15369 39.4266 8.79139C39.4266 9.91218 39.4266 11.0523 39.4266 12.1731C37.969 12.1731 36.5115 12.1731 35.0539 12.1731C30.9727 12.1731 26.911 12.1731 22.8298 12.1731C22.1885 12.1538 21.586 12.1538 20.9641 12.1538Z" fill="#07A78D"/>
<path d="M20.9641 12.1538C21.586 12.1538 22.1885 12.1345 22.8104 12.1345C26.8915 12.1345 30.9533 12.1345 35.0345 12.1345C35.1317 12.2311 35.2483 12.2118 35.3454 12.2118C36.6281 12.2118 37.9107 12.2118 39.1934 12.2118C39.2906 12.2118 39.4072 12.2504 39.4655 12.1538C39.4655 11.091 39.4849 10.0475 39.4849 8.98468C39.6015 9.19724 39.5432 9.42913 39.5432 9.6417C39.5238 10.5306 39.5821 11.4002 39.5044 12.2891C38.0273 12.2891 36.5309 12.2891 35.0539 12.2891C34.7818 12.2891 34.5098 12.2698 34.2182 12.2698C30.0205 12.2698 25.8227 12.2698 21.6249 12.2698C21.4111 12.2891 21.1585 12.3277 20.9641 12.1538Z" fill="#4EAF9B"/>
<path d="M13.9678 38.5891C17.0967 38.5891 20.2256 38.5891 23.3739 38.5891C23.2185 38.7243 23.0241 38.705 22.8298 38.705C20.0312 38.705 17.2522 38.705 14.4536 38.705C14.2787 38.6857 14.0844 38.763 13.9678 38.5891Z" fill="#3D97B9"/>
<path d="M23.2767 34.2991C23.1795 34.3957 23.0629 34.3571 22.9658 34.3571C21.2944 34.3571 19.6425 34.3571 17.9712 34.3571C17.8545 34.3571 17.7185 34.415 17.6213 34.2798C19.4482 34.2798 21.275 34.2798 23.1018 34.2798C23.1407 34.2798 23.199 34.2991 23.2767 34.2991Z" fill="#318BAD"/>
<path d="M24.2484 37.6808C24.2484 36.8692 24.2484 36.0383 24.2484 35.2267C24.3456 35.3233 24.3456 35.4586 24.3456 35.5745C24.3456 36.1542 24.3456 36.7533 24.3456 37.333C24.3456 37.4489 24.3456 37.5842 24.2484 37.6808Z" fill="#318BAD"/>
<path d="M39.5044 8.98464C39.5044 10.0475 39.4849 11.091 39.4849 12.1538C39.4655 12.1538 39.4461 12.1538 39.4266 12.1345C39.4266 11.0137 39.4266 9.87354 39.4266 8.75275C39.4849 8.83004 39.5044 8.90734 39.5044 8.98464Z" fill="#419B84"/>
<path d="M39.4071 12.1345C39.4266 12.1345 39.446 12.1345 39.4654 12.1538C39.3877 12.2504 39.2905 12.2117 39.1934 12.2117C37.9107 12.2117 36.628 12.2117 35.3454 12.2117C35.2288 12.2117 35.1122 12.2311 35.0344 12.1345C36.492 12.1538 37.9496 12.1538 39.4071 12.1345Z" fill="#2A9969"/>
</svg>
