<svg width="61" height="67" viewBox="0 0 61 67" fill="none" xmlns="http://www.w3.org/2000/svg">
<g filter="url(#filter0_d)">
<circle cx="30.5" cy="33.5" r="21.5" fill="url(#paint0_linear)"/>
<path d="M31.7058 44.9664C31.7193 44.4126 31.7193 43.8723 31.7599 43.3186C31.8411 42.3191 31.787 41.306 31.8276 40.3065C31.8547 39.3341 31.9359 38.3481 31.9088 37.3756C31.9088 37.227 31.9629 37.1054 32.0847 37.0514C32.2336 36.9974 32.3959 36.9704 32.5583 37.0919C33.6273 37.9294 34.7099 38.7533 35.7924 39.5772C35.8601 39.6312 35.9277 39.6852 36.0089 39.7258C36.1172 39.7933 36.1984 39.9824 36.3201 39.9148C36.4149 39.8608 36.3607 39.6717 36.3607 39.5502C36.3607 34.5527 36.3607 29.5687 36.3607 24.5712C36.3607 24.5306 36.3607 24.4901 36.3607 24.4361C37.3892 24.4361 38.4311 24.4361 39.4595 24.4361C39.4731 24.5306 39.4866 24.6252 39.4866 24.7197C39.4866 30.4061 39.4866 36.0924 39.5001 41.7653C39.5001 42.4001 38.9994 42.9269 38.3634 42.8998C37.7951 42.8728 37.2268 42.8998 36.6584 42.8998C36.4555 42.8998 36.4149 42.9269 36.5231 43.143C36.8208 43.7102 37.0915 44.291 37.3621 44.8853C37.4703 45.115 37.3486 45.304 37.1456 45.3986" fill="#FECD4D"/>
<path d="M28.1333 39.8068C28.4716 39.9013 28.7287 40.0769 28.8099 40.4416C28.8099 41.0089 28.8099 41.5897 28.8099 42.157C28.7423 42.4946 28.5257 42.7107 28.1874 42.7918C26.0088 42.7918 23.8302 42.7918 21.6381 42.7918C21.2456 42.6972 21.0021 42.3731 20.975 41.9273C20.9615 41.6707 20.975 41.4006 20.975 41.1439C20.975 34.9038 20.975 28.6772 20.975 22.4371C20.975 21.8428 21.2186 21.4511 21.7328 21.37C22.2605 21.289 22.8018 21.289 23.3295 21.37C23.8437 21.4511 24.0873 21.8158 24.0873 22.3831C24.0873 28.0829 24.0873 33.7693 24.0873 39.4691C24.0873 39.5907 24.0197 39.7392 24.1956 39.8068C24.2632 39.9013 24.358 39.8608 24.4391 39.8608C25.6029 39.8608 26.7531 39.8608 27.9168 39.8608C27.9845 39.8608 28.0657 39.8743 28.1333 39.8068Z" fill="#0E9AD0"/>
<path d="M26.5231 24.328C26.1983 24.2605 25.9953 24.0444 25.9412 23.7607C25.8194 23.1664 25.8059 22.5586 25.9412 21.9779C26.0359 21.5727 26.3742 21.3565 26.7937 21.3295C26.8614 21.3295 26.9155 21.3295 26.9832 21.3295C30.7585 21.3295 34.5474 21.3295 38.3228 21.3295C38.8911 21.3295 39.2159 21.5321 39.3783 21.9779C39.3783 22.7612 39.3783 23.5581 39.3783 24.3415C38.3634 24.3415 37.3485 24.3415 36.3336 24.3415C33.4919 24.3415 30.6638 24.3415 27.8221 24.3415C27.3756 24.328 26.9561 24.328 26.5231 24.328Z" fill="#07A78D"/>
<path d="M26.5229 24.328C26.956 24.328 27.3755 24.3145 27.8085 24.3145C30.6501 24.3145 33.4783 24.3145 36.32 24.3145C36.3876 24.382 36.4688 24.3685 36.5365 24.3685C37.4296 24.3685 38.3227 24.3685 39.2158 24.3685C39.2834 24.3685 39.3646 24.3956 39.4052 24.328C39.4052 23.5852 39.4187 22.8558 39.4187 22.1129C39.4999 22.2615 39.4593 22.4236 39.4593 22.5721C39.4458 23.1935 39.4864 23.8013 39.4323 24.4226C38.4038 24.4226 37.3619 24.4226 36.3335 24.4226C36.144 24.4226 35.9546 24.4091 35.7516 24.4091C32.8288 24.4091 29.9059 24.4091 26.983 24.4091C26.8342 24.4226 26.6583 24.4496 26.5229 24.328Z" fill="#4EAF9B"/>
<path d="M21.6516 42.8053C23.8302 42.8053 26.0088 42.8053 28.201 42.8053C28.0927 42.8998 27.9574 42.8863 27.8221 42.8863C25.8735 42.8863 23.9385 42.8863 21.9899 42.8863C21.8681 42.8728 21.7328 42.9268 21.6516 42.8053Z" fill="#3D97B9"/>
<path d="M28.1336 39.8068C28.0659 39.8744 27.9847 39.8474 27.917 39.8474C26.7533 39.8474 25.6031 39.8474 24.4394 39.8474C24.3582 39.8474 24.2635 39.8879 24.1958 39.7933C25.4678 39.7933 26.7398 39.7933 28.0118 39.7933C28.0388 39.7933 28.0794 39.8068 28.1336 39.8068Z" fill="#318BAD"/>
<path d="M28.8101 42.1705C28.8101 41.6032 28.8101 41.0224 28.8101 40.4551C28.8777 40.5227 28.8777 40.6172 28.8777 40.6983C28.8777 41.1035 28.8777 41.5222 28.8777 41.9274C28.8777 42.0084 28.8777 42.103 28.8101 42.1705Z" fill="#318BAD"/>
<path d="M39.4323 22.1129C39.4323 22.8558 39.4188 23.5852 39.4188 24.3281C39.4052 24.3281 39.3917 24.3281 39.3782 24.3145C39.3782 23.5312 39.3782 22.7343 39.3782 21.9509C39.4188 22.0049 39.4323 22.0589 39.4323 22.1129Z" fill="#419B84"/>
<path d="M39.365 24.3145C39.3785 24.3145 39.392 24.3145 39.4056 24.328C39.3514 24.3955 39.2838 24.3685 39.2161 24.3685C38.323 24.3685 37.4299 24.3685 36.5368 24.3685C36.4556 24.3685 36.3744 24.382 36.3203 24.3145C37.3352 24.328 38.3501 24.328 39.365 24.3145Z" fill="#2A9969"/>
</g>
<defs>
<filter id="filter0_d" x="-6" y="-2" width="73" height="79" filterUnits="userSpaceOnUse" color-interpolation-filters="sRGB">
<feFlood flood-opacity="0" result="BackgroundImageFix"/>
<feColorMatrix in="SourceAlpha" type="matrix" values="0 0 0 0 0 0 0 0 0 0 0 0 0 0 0 0 0 0 127 0"/>
<feOffset dy="4"/>
<feGaussianBlur stdDeviation="3"/>
<feColorMatrix type="matrix" values="0 0 0 0 0 0 0 0 0 0 0 0 0 0 0 0 0 0 0.24 0"/>
<feBlend mode="normal" in2="BackgroundImageFix" result="effect1_dropShadow"/>
<feBlend mode="normal" in="SourceGraphic" in2="effect1_dropShadow" result="shape"/>
</filter>
<linearGradient id="paint0_linear" x1="30.5" y1="12" x2="30.5" y2="55" gradientUnits="userSpaceOnUse">
<stop stop-color="white"/>
<stop offset="1" stop-color="#CDCDCD"/>
</linearGradient>
</defs>
</svg>
