<svg width="43" height="43" viewBox="0 0 43 43" fill="none" xmlns="http://www.w3.org/2000/svg">
<circle cx="21.5" cy="21.5" r="21.5" fill="url(#paint0_linear)"/>
<path d="M25.3499 31.8512C23.9069 31.0054 22.7224 31.9316 22.7632 31.3734C22.8449 30.366 22.7904 29.345 22.8313 28.3376C22.8585 27.3574 22.9401 26.3636 22.9129 25.3834C22.9129 25.2337 22.9673 25.1111 23.0898 25.0567C23.2395 25.0022 23.4028 24.975 23.5661 25.0975C24.6411 25.9416 25.7297 26.772 26.8183 27.6024C26.8863 27.6569 26.9544 27.7114 27.036 27.7522C27.1449 27.8203 27.2265 28.0109 27.349 27.9428C27.4442 27.8883 27.3898 27.6977 27.3898 27.5752C27.3898 22.5382 27.3898 17.5147 27.3898 12.4777C27.3898 12.4368 27.3898 12.396 27.3898 12.3416C28.424 12.3416 29.4717 12.3416 30.5059 12.3416C30.5195 12.4368 30.5331 12.5321 30.5331 12.6274C30.5331 18.3588 30.5331 24.0901 30.5467 29.8079C30.5467 30.4477 30.0433 30.9786 29.4037 30.9514C28.8322 30.9242 28.2607 30.9514 27.6892 30.9514C27.485 30.9514 27.4442 30.9786 27.5531 31.1964C27.8525 31.7682 28.1246 32.3536 28.3968 32.9526C28.283 32.7032 28.6903 32.7884 27.2242 33.7255" fill="white"/>
<path d="M22.8036 29.7213C22.7769 30.4125 22.7575 31.2792 22.6778 31.973C22.6446 32.2059 22.6792 32.2935 22.9464 32.2481C23.5743 32.1445 24.804 31.9473 25.4446 31.8512" fill="white"/>
<path d="M19.1213 27.9073C19.4668 28.0025 19.7294 28.1794 19.8123 28.5467C19.8123 29.1182 19.8123 29.7032 19.8123 30.2746C19.7432 30.6148 19.5221 30.8324 19.1765 30.9141C16.9514 30.9141 14.7263 30.9141 12.4873 30.9141C12.0865 30.8188 11.8377 30.4923 11.8101 30.0433C11.7963 29.7848 11.8101 29.5127 11.8101 29.2542C11.8101 22.9685 11.8101 16.6963 11.8101 10.4106C11.8101 9.81195 12.0589 9.41739 12.5841 9.33576C13.1231 9.25413 13.6759 9.25413 14.2149 9.33576C14.7401 9.41739 14.9889 9.78474 14.9889 10.3562C14.9889 16.0977 14.9889 21.8256 14.9889 27.5671C14.9889 27.6896 14.9198 27.8392 15.0994 27.9073C15.1685 28.0025 15.2653 27.9617 15.3482 27.9617C16.5368 27.9617 17.7115 27.9617 18.9001 27.9617C18.9692 27.9617 19.0522 27.9753 19.1213 27.9073Z" fill="white"/>
<path d="M17.4285 12.3278C17.1014 12.259 16.8969 12.039 16.8424 11.7502C16.7198 11.145 16.7061 10.5261 16.8424 9.9347C16.9378 9.5221 17.2786 9.30204 17.7011 9.27454C17.7692 9.27454 17.8237 9.27454 17.8919 9.27454C21.6945 9.27454 25.5107 9.27454 29.3134 9.27454C29.8858 9.27454 30.2129 9.48084 30.3764 9.9347C30.3764 10.7324 30.3764 11.5439 30.3764 12.3416C29.3542 12.3416 28.332 12.3416 27.3098 12.3416C24.4476 12.3416 21.5991 12.3416 18.7369 12.3416C18.2871 12.3278 17.8646 12.3278 17.4285 12.3278Z" fill="white"/>
<path d="M17.4268 12.2509C17.8656 12.2509 18.2907 12.2379 18.7295 12.2379C21.6093 12.2379 24.4753 12.2379 27.3551 12.2379C27.4236 12.3027 27.5059 12.2897 27.5745 12.2897C28.4795 12.2897 29.3846 12.2897 30.2897 12.2897C30.3582 12.2897 30.4405 12.3156 30.4817 12.2509C30.4817 11.5384 30.4954 10.8389 30.4954 10.1265C30.5777 10.269 30.5365 10.4244 30.5365 10.5669C30.5228 11.1628 30.5639 11.7457 30.5091 12.3415C29.4669 12.3415 28.411 12.3415 27.3688 12.3415C27.1768 12.3415 26.9848 12.3286 26.7791 12.3286C23.8171 12.3286 20.855 12.3286 17.893 12.3286C17.7422 12.3415 17.5639 12.3674 17.4268 12.2509Z" fill="#4EAF9B"/>
<path d="M30.5469 10.1188C30.5469 10.8642 30.5043 11.5961 30.5043 12.3416C30.4617 12.3416 30.4191 12.3416 30.3765 12.328C30.3765 11.5419 30.3765 10.7422 30.3765 9.95612C30.5043 10.0103 30.5469 10.0645 30.5469 10.1188Z" fill="#419B84"/>
<defs>
<linearGradient id="paint0_linear" x1="21.5" y1="0" x2="21.5" y2="43" gradientUnits="userSpaceOnUse">
<stop stop-color="#001D40"/>
<stop offset="1" stop-color="#000D30"/>
</linearGradient>
</defs>
</svg>
