<svg width="6" height="9" viewBox="0 0 6 9" fill="none" xmlns="http://www.w3.org/2000/svg">
<path d="M3.1713 1.06296C2.65379 0.416065 1.70985 0.311182 1.06296 0.828697C0.416065 1.34621 0.311182 2.29015 0.828697 2.93704L3.1713 1.06296ZM4 4.5L5.1713 5.43704C5.60957 4.88921 5.60957 4.11079 5.1713 3.56296L4 4.5ZM0.828697 6.06296C0.311182 6.70985 0.416065 7.65379 1.06296 8.1713C1.70985 8.68882 2.65379 8.58394 3.1713 7.93704L0.828697 6.06296ZM0.828697 2.93704L2.8287 5.43704L5.1713 3.56296L3.1713 1.06296L0.828697 2.93704ZM2.8287 3.56296L0.828697 6.06296L3.1713 7.93704L5.1713 5.43704L2.8287 3.56296Z" fill="black"/>
</svg>
